<?xml version="1.0" encoding="utf-8"?>
<!-- Generator: Adobe Illustrator 25.2.3, SVG Export Plug-In . SVG Version: 6.00 Build 0)  -->
<svg version="1.1" id="Layer_1" xmlns="http://www.w3.org/2000/svg" xmlns:xlink="http://www.w3.org/1999/xlink" x="0px" y="0px"
	 viewBox="0 0 400 100" style="enable-background:new 0 0 400 100;" xml:space="preserve">
<style type="text/css">
	.st0{fill:#FFFFFF;}
	.st1{fill:#ED1C24;}
	.st2{fill:none;}
</style>
<g>
	<g>
		<g>
			<path class="st0" d="M100.7,34.23c-0.37,0.12-0.74,0.25-1.08,0.39c-0.38,0.16-0.74,0.33-1.08,0.51c-0.75,0.4-1.4,0.84-1.9,1.34
				c-0.04,0.04-0.08,0.1-0.13,0.14c-0.23,0.25-0.46,0.53-0.67,0.84c-0.2,0.29-0.39,0.61-0.57,0.96c-1.33,2.52-2.12,6.29-2.31,10.18
				c-0.02,0.35-0.03,0.71-0.04,1.07c-0.01,0.36-0.01,0.71-0.01,1.06c0.03,4.13,0.75,8.13,2.23,10.68c0.19,0.32,0.38,0.63,0.6,0.9
				c0.23,0.29,0.47,0.55,0.73,0.77c0.06,0.05,0.11,0.11,0.17,0.16c0.53,0.43,1.18,0.81,1.91,1.15c0.34,0.16,0.7,0.31,1.08,0.45
				c0.35,0.13,0.7,0.25,1.08,0.36c2.67,0.8,5.99,1.2,9.31,1.2V32.93C106.67,32.93,103.34,33.37,100.7,34.23z"/>
			<path class="st0" d="M44.59,34.63c-0.38,0.16-0.74,0.33-1.08,0.51c-0.75,0.4-1.4,0.84-1.9,1.34c-0.04,0.04-0.08,0.1-0.13,0.14
				c-0.23,0.25-0.46,0.53-0.67,0.84c-0.2,0.29-0.39,0.61-0.57,0.96c-1.33,2.52-2.12,6.29-2.31,10.18c-0.02,0.35-0.03,0.71-0.04,1.07
				c-0.01,0.36-0.01,0.71-0.01,1.06c0.03,4.13,0.75,8.13,2.23,10.68c0.19,0.32,0.38,0.63,0.6,0.9c0.23,0.29,0.47,0.55,0.73,0.77
				c0.06,0.05,0.11,0.11,0.17,0.16c0.53,0.43,1.18,0.81,1.91,1.15c0.34,0.16,0.7,0.31,1.08,0.45c0.35,0.13,0.7,0.25,1.08,0.36
				c2.67,0.8,5.99,1.2,9.31,1.2V32.93c-3.34,0-6.67,0.44-9.31,1.31C45.29,34.36,44.93,34.49,44.59,34.63z"/>
		</g>
		<g>
			<path d="M129.94,29.99c-3.46-3.46-10.91-5.52-19.93-5.52c-5.09,0-9.67,0.66-13.33,1.85c-9.35,2.05-15.86,4.57-19.77,6.39
				c-0.59-1.04-1.26-1.96-2.01-2.72c-3.46-3.46-10.91-5.52-19.93-5.52c-5.09,0-9.67,0.66-13.33,1.85
				c-15.6,3.42-23.29,8.16-24.2,8.74c-0.85,0.44-1.63,0.96-2.26,1.6c-3.05,3.05-4.12,9.97-3.83,15.47
				c0.16,3.04,0.89,8.51,3.99,11.01c0.76,0.61,1.75,1.14,2.9,1.59c2.38,1.38,9.53,5.06,22.07,7.95c3.91,1.38,9.01,2.16,14.66,2.16
				c8.63,0,16.01-1.8,19.75-4.82c1.06-0.85,1.92-1.96,2.64-3.21c3.75,1.71,9.69,3.97,17.98,5.88c3.91,1.38,9.01,2.16,14.66,2.16
				c8.63,0,16.01-1.8,19.75-4.82c4.55-3.67,5.63-11.93,5.88-16.53C136.09,45.07,134.5,34.55,129.94,29.99z M128.33,68.25
				c-3.56,2.88-10.94,4.32-18.32,4.32c-3.13,0-6.25-0.26-9.09-0.78c-0.36-0.07-0.72-0.14-1.07-0.21c-0.87-0.18-1.71-0.39-2.51-0.63
				c-2.31-0.68-4.27-1.58-5.66-2.7c-0.76-0.61-1.42-1.45-2.01-2.44c-0.18-0.31-0.36-0.64-0.52-0.98c-0.16-0.32-0.31-0.66-0.45-1.01
				c-1.01-2.47-1.65-5.56-1.94-8.86h-1.14h-1.14H80.5h-1.14h-1.14c-0.28,3.15-0.87,6.1-1.8,8.52c-0.05,0.14-0.11,0.28-0.17,0.41
				c-0.08,0.2-0.16,0.39-0.25,0.58c-0.06,0.13-0.13,0.26-0.19,0.39c-0.1,0.2-0.19,0.39-0.29,0.57c-0.07,0.13-0.14,0.25-0.22,0.37
				c-0.58,0.99-1.25,1.82-2,2.43c-3.56,2.88-10.94,4.32-18.32,4.32c-3.13,0-6.25-0.26-9.09-0.78c-0.36-0.07-0.72-0.14-1.07-0.21
				c-0.87-0.18-1.71-0.39-2.51-0.63c-2.31-0.68-4.27-1.58-5.66-2.7c-0.76-0.61-1.42-1.45-2.01-2.44c-0.18-0.31-0.36-0.64-0.52-0.98
				c-0.16-0.32-0.31-0.66-0.45-1.01c-1.43-3.51-2.12-8.26-2.12-13.1c0-0.35,0-0.71,0.01-1.06c0.01-0.36,0.02-0.71,0.03-1.07
				c0.2-4.8,1.07-9.5,2.54-12.98c0.15-0.35,0.3-0.68,0.46-1c0.17-0.34,0.34-0.66,0.52-0.96c0.47-0.8,0.98-1.49,1.53-2.05
				c1.54-1.54,4.06-2.71,7.09-3.52c0.35-0.09,0.71-0.18,1.07-0.27c0.35-0.08,0.71-0.16,1.07-0.23c2.83-0.56,5.96-0.84,9.09-0.84
				c7.54,0,15.08,1.62,18.32,4.86c0.57,0.57,1.09,1.29,1.57,2.11c0.06,0.11,0.13,0.23,0.19,0.34c0.11,0.2,0.21,0.4,0.32,0.61
				c0.06,0.12,0.11,0.24,0.17,0.36c0.09,0.2,0.19,0.41,0.28,0.62c0.05,0.12,0.1,0.24,0.15,0.37c1.05,2.62,1.77,5.89,2.14,9.34h1.14
				h1.16h4.17h1.16h1.14c0.39-3.63,1.16-7.05,2.3-9.73c0.15-0.35,0.3-0.68,0.46-1c0.17-0.34,0.34-0.66,0.52-0.96
				c0.47-0.8,0.98-1.49,1.53-2.05c1.54-1.54,4.06-2.71,7.09-3.52c0.35-0.09,0.71-0.18,1.07-0.27c0.35-0.08,0.71-0.16,1.07-0.23
				c2.83-0.56,5.96-0.84,9.09-0.84c7.54,0,15.08,1.62,18.32,4.86C134.81,38.08,135.46,62.49,128.33,68.25z"/>
			<path d="M110.01,32.93v33.45c5.39,0,10.77-1.05,13.37-3.15c5.2-4.2,4.73-22.02,0-26.75C121.02,34.11,115.52,32.93,110.01,32.93z"
				/>
			<path d="M72.03,48.59c-0.08-1.61-0.26-3.19-0.54-4.68c-0.13-0.7-0.29-1.37-0.46-2.01c-0.16-0.61-0.35-1.19-0.55-1.74
				c-0.01-0.03-0.03-0.07-0.04-0.1c-0.17-0.44-0.34-0.87-0.53-1.26c-0.18-0.38-0.38-0.72-0.58-1.05c-0.3-0.49-0.63-0.92-0.98-1.27
				c-2.36-2.36-7.87-3.55-13.37-3.55v33.45c5.39,0,10.77-1.05,13.37-3.15c0.37-0.3,0.71-0.68,1.02-1.1
				c0.21-0.29,0.42-0.61,0.61-0.96c0.19-0.35,0.37-0.73,0.53-1.13c0.05-0.12,0.1-0.23,0.15-0.36c0.21-0.54,0.39-1.12,0.55-1.73
				c0.17-0.66,0.32-1.36,0.44-2.07c0.27-1.63,0.41-3.38,0.43-5.15c0-0.35,0-0.71-0.01-1.06C72.06,49.3,72.05,48.94,72.03,48.59z"/>
		</g>
		<path class="st1" d="M128.33,31.6c-3.24-3.24-10.78-4.86-18.32-4.86c-3.13,0-6.26,0.28-9.09,0.84c-0.36,0.07-0.72,0.15-1.07,0.23
			c-0.36,0.08-0.72,0.17-1.07,0.27c-3.02,0.81-5.55,1.98-7.09,3.52c-0.56,0.56-1.06,1.25-1.53,2.05c-0.18,0.31-0.35,0.63-0.52,0.96
			c-0.16,0.32-0.31,0.66-0.46,1c-1.14,2.68-1.92,6.1-2.3,9.73h-1.14h-1.16h-4.17h-1.16h-1.14c-0.37-3.46-1.09-6.72-2.14-9.34
			c-0.05-0.12-0.1-0.25-0.15-0.37c-0.09-0.21-0.18-0.42-0.28-0.62c-0.06-0.12-0.11-0.24-0.17-0.36c-0.1-0.21-0.21-0.41-0.32-0.61
			c-0.06-0.12-0.13-0.23-0.19-0.34c-0.48-0.82-1-1.54-1.57-2.11c-3.24-3.24-10.78-4.86-18.32-4.86c-3.13,0-6.26,0.28-9.09,0.84
			c-0.36,0.07-0.72,0.15-1.07,0.23c-0.36,0.08-0.72,0.17-1.07,0.27c-3.02,0.81-5.55,1.98-7.09,3.52c-0.56,0.56-1.06,1.25-1.53,2.05
			c-0.18,0.31-0.35,0.63-0.52,0.96c-0.16,0.32-0.31,0.66-0.46,1c-1.48,3.47-2.34,8.18-2.54,12.98c-0.01,0.35-0.02,0.71-0.03,1.07
			c-0.01,0.36-0.01,0.71-0.01,1.06c0,4.84,0.68,9.59,2.12,13.1c0.14,0.35,0.29,0.69,0.45,1.01c0.17,0.34,0.34,0.67,0.52,0.98
			c0.58,0.99,1.25,1.83,2.01,2.44c1.38,1.12,3.35,2.02,5.66,2.7c0.8,0.24,1.63,0.44,2.51,0.63c0.35,0.07,0.71,0.15,1.07,0.21
			c2.84,0.52,5.96,0.78,9.09,0.78c7.38,0,14.76-1.44,18.32-4.32c0.76-0.61,1.42-1.44,2-2.43c0.07-0.12,0.15-0.24,0.22-0.37
			c0.1-0.19,0.2-0.38,0.29-0.57c0.06-0.13,0.13-0.26,0.19-0.39c0.09-0.19,0.17-0.39,0.25-0.58c0.06-0.14,0.11-0.27,0.17-0.41
			c0.93-2.41,1.52-5.37,1.8-8.52h1.14h1.14h3.98h1.14h1.14c0.29,3.3,0.93,6.38,1.94,8.86c0.14,0.35,0.29,0.69,0.45,1.01
			c0.17,0.34,0.34,0.67,0.52,0.98c0.58,0.99,1.25,1.83,2.01,2.44c1.38,1.12,3.35,2.02,5.66,2.7c0.8,0.24,1.63,0.44,2.51,0.63
			c0.35,0.07,0.71,0.15,1.07,0.21c2.84,0.52,5.96,0.78,9.09,0.78c7.38,0,14.76-1.44,18.32-4.32
			C135.46,62.49,134.81,38.08,128.33,31.6z M68.35,63.22c-2.6,2.1-7.99,3.15-13.37,3.15c-3.32,0-6.64-0.4-9.31-1.2
			c-0.37-0.11-0.73-0.23-1.08-0.36c-0.38-0.14-0.74-0.29-1.08-0.45c-0.73-0.34-1.38-0.72-1.91-1.15c-0.06-0.05-0.11-0.11-0.17-0.16
			c-0.26-0.23-0.5-0.48-0.73-0.77c-0.21-0.27-0.41-0.58-0.6-0.9c-1.48-2.54-2.2-6.55-2.23-10.68c0-0.35,0-0.71,0.01-1.06
			c0.01-0.36,0.02-0.71,0.04-1.07c0.19-3.89,0.98-7.65,2.31-10.18c0.18-0.34,0.37-0.66,0.57-0.96c0.21-0.31,0.44-0.59,0.67-0.84
			c0.04-0.05,0.08-0.1,0.13-0.14c0.5-0.5,1.15-0.95,1.9-1.34c0.34-0.18,0.7-0.35,1.08-0.51c0.34-0.14,0.71-0.27,1.08-0.39
			c2.64-0.87,5.97-1.31,9.31-1.31c5.51,0,11.01,1.18,13.37,3.55c0.35,0.35,0.68,0.78,0.98,1.27c0.2,0.33,0.4,0.67,0.58,1.05
			c0.19,0.39,0.36,0.82,0.53,1.26c0.01,0.03,0.03,0.07,0.04,0.1c0.2,0.55,0.38,1.13,0.55,1.74c0.17,0.64,0.33,1.32,0.46,2.01
			c0.28,1.49,0.46,3.07,0.54,4.68c0.02,0.35,0.03,0.71,0.04,1.07c0.01,0.36,0.01,0.71,0.01,1.06c-0.01,1.78-0.15,3.53-0.43,5.15
			c-0.12,0.72-0.27,1.42-0.44,2.07c-0.16,0.61-0.34,1.19-0.55,1.73c-0.05,0.12-0.1,0.24-0.15,0.36c-0.16,0.4-0.34,0.78-0.53,1.13
			c-0.19,0.35-0.39,0.66-0.61,0.96C69.06,62.55,68.72,62.92,68.35,63.22z M123.38,63.22c-2.6,2.1-7.99,3.15-13.37,3.15
			c-3.32,0-6.64-0.4-9.31-1.2c-0.37-0.11-0.73-0.23-1.08-0.36c-0.38-0.14-0.74-0.29-1.08-0.45c-0.73-0.34-1.38-0.72-1.91-1.15
			c-0.06-0.05-0.11-0.11-0.17-0.16c-0.26-0.23-0.5-0.48-0.73-0.77c-0.21-0.27-0.41-0.58-0.6-0.9c-1.48-2.54-2.2-6.55-2.23-10.68
			c0-0.35,0-0.71,0.01-1.06c0.01-0.36,0.02-0.71,0.04-1.07c0.19-3.89,0.98-7.65,2.31-10.18c0.18-0.34,0.37-0.66,0.57-0.96
			c0.21-0.31,0.44-0.59,0.67-0.84c0.04-0.05,0.08-0.1,0.13-0.14c0.5-0.5,1.15-0.95,1.9-1.34c0.34-0.18,0.7-0.35,1.08-0.51
			c0.34-0.14,0.71-0.27,1.08-0.39c2.64-0.87,5.97-1.31,9.31-1.31c5.51,0,11.01,1.18,13.37,3.55
			C128.11,41.2,128.59,59.02,123.38,63.22z"/>
	</g>
	<g>
		<path class="st2" d="M229.79,46.57c0.24,0.2,0.46,0.42,0.68,0.63c-0.01-0.24-0.01-0.47-0.02-0.71
			C230.23,46.51,230.01,46.55,229.79,46.57z"/>
		<g>
			<path class="st1" d="M182.73,59.14c-0.01,0-0.02,0-0.02,0c-0.17,0-0.35-0.01-0.52-0.01c-0.44,0-0.88-0.01-1.35-0.03
				c-0.3-0.01-0.61-0.03-0.91-0.05c-0.38-0.02-0.75-0.04-1.15-0.06l-0.21-0.01l-1.35-0.05l-1.07-0.04c-1.59-0.1-2.93-0.15-4.02-0.15
				V57.6v-1.35v-0.74c0-3.87-0.02-6.81-0.05-8.79c-0.07-3.97-0.1-6.95-0.1-8.94c0-1.42,0.03-3.33,0.1-5.71
				c-0.56-0.23-1.31-0.41-2.23-0.55c-0.22-0.03-0.44-0.02-0.65-0.05c-0.49-0.05-0.97-0.09-1.46-0.1c-0.22-0.01-0.45-0.05-0.67-0.05
				c-0.83,0-1.66,0.06-2.48,0.17c-0.07,0.01-0.12,0.02-0.19,0.03c-0.73,0.11-1.33,0.24-1.75,0.39l0.05,3.23
				c0,1.46,0.02,2.47,0.05,3.03v1.84v1.19c0.07,3.97,0.1,6.77,0.1,8.39c0,5.53-0.12,11.03-0.35,16.49v1.14
				c1.58,0.02,3.56,0.04,5.9,0.04c1,0,2.05,0.01,3.18,0.01c3.66,0,6.46-0.03,8.49-0.08c0.14,0,0.3-0.01,0.43-0.01
				c0.05,0,0.11,0,0.16,0l1.29-0.05l0,0l0.05,0l0.74,0.05h0.35c0.56,0,0.96-0.03,1.19-0.1c0.09-0.03,0.16-0.08,0.23-0.14
				c0.12-0.09,0.22-0.21,0.29-0.38c0.02-0.05,0.03-0.15,0.05-0.22c-0.2-0.28-0.4-0.56-0.56-0.87
				C183.37,63.73,182.85,61.6,182.73,59.14z"/>
			<path class="st1" d="M205.99,43c0-1.68,0.35-3.29,0.98-4.85c-0.08-0.24-0.14-0.48-0.23-0.72c-0.18-0.5-0.45-1-0.82-1.51
				c-0.25-0.35-0.55-0.69-0.89-1.04c-0.19-0.19-0.37-0.39-0.58-0.58c-0.14-0.1-0.31-0.18-0.45-0.27c-0.87-0.59-1.84-1.06-2.93-1.42
				c-0.11-0.04-0.2-0.09-0.32-0.12c-1-0.29-2.06-0.45-3.15-0.53c-0.45-0.03-0.88-0.09-1.34-0.09c-0.95,0-1.87,0.1-2.76,0.24
				c-1.47,0.24-2.88,0.66-4.19,1.3l-1.09,0.6c-0.99,1.19-1.73,2.58-2.21,4.15c-0.48,1.57-0.77,3.19-0.87,4.84
				c-0.1,1.52-0.15,3.05-0.15,4.57c0,2.48,0.08,5.08,0.25,7.8c0,0.41,0,0.76,0.01,1.03c0.01,0.27,0.02,0.47,0.04,0.61l0.05,0.75
				l0.05,0.84c0.05,1.83,0.36,3.4,0.9,4.73c0.12,0.3,0.24,0.61,0.39,0.88c0.26,0.49,0.6,0.93,0.99,1.31c0.5,0.5,1.1,0.92,1.82,1.24
				c0.96,0.44,2.05,0.71,3.22,0.89c0.38,0.06,0.73,0.15,1.13,0.18c0.3,0.03,0.83,0.05,1.59,0.05c0.54,0,1.02-0.05,1.52-0.09
				c1.02-0.08,1.98-0.21,2.8-0.46c0.39-0.11,0.76-0.25,1.13-0.38c0.76-0.27,1.48-0.56,2.15-0.92c0.23-0.12,0.4-0.26,0.6-0.39
				c0.41-0.27,0.77-0.55,1.07-0.85c0.2-0.2,0.41-0.38,0.56-0.59c0.09-0.15,0.16-0.32,0.25-0.47c0.34-0.6,0.63-1.24,0.87-1.91
				c-0.66-1.51-0.99-3.14-0.89-4.9v-0.37c0-0.08,0.03-0.15,0.04-0.24c0.05-0.5,0.22-0.97,0.51-1.36c0.36-0.48,0.88-0.83,1.49-0.99
				c0.01-0.36,0.02-0.74,0.03-1.15c0.01-0.47,0.02-0.98,0.02-1.52c0-0.31,0.01-0.62,0.01-0.95c0-0.48,0-0.92,0.01-1.35
				c-0.17-0.31-0.33-0.61-0.47-0.92C206.37,46.41,205.99,44.7,205.99,43z M192.83,58.39v0.05c-0.05-0.17-0.1-0.37-0.14-0.58
				c-0.17-0.77-0.3-1.79-0.4-3.09l-0.05-0.7c-0.07-1.09-0.17-1.97-0.3-2.63v0.05c-0.03-0.56-0.05-1.41-0.05-2.53
				c0-2.25,0.17-4.11,0.5-5.56c0.08-0.27,0.19-0.53,0.31-0.79c0.16-0.36,0.34-0.71,0.56-1.07c0.1-0.16,0.21-0.29,0.31-0.44
				c0.28-0.39,0.57-0.74,0.86-0.98c0.76-0.53,1.54-0.79,2.34-0.79c0.26,0,0.53,0.05,0.79,0.15c0.6,0.3,1.08,0.8,1.46,1.51
				c0.38,0.71,0.6,1.53,0.67,2.46l0.2,2.58v0.25l0.1,3.38v2.38l-0.05,0.94v0.7l-0.05,0.94l-0.05,0.65
				c-0.03,0.26-0.05,0.68-0.05,1.24c0,0.63-0.04,1.09-0.12,1.39c-0.08,0.3-0.29,0.66-0.62,1.09c-0.4,0.46-0.87,0.82-1.42,1.07
				c-0.55,0.25-1.08,0.37-1.61,0.37c-0.66,0-1.28-0.17-1.86-0.52c-0.32-0.19-0.58-0.44-0.81-0.72
				C193.14,58.95,192.97,58.7,192.83,58.39z"/>
			<path class="st1" d="M224.73,43.79c0.8,0.12,1.65,0.2,2.58,0.2c0.17,0,0.35-0.02,0.52-0.02c0.46-0.01,0.92-0.02,1.39-0.06
				c0.39-0.03,0.78-0.09,1.16-0.13c0.35-0.04,0.7-0.07,1.05-0.13h0.28h0.32c0.07-0.36,0.11-0.66,0.15-0.97
				c-0.18-0.04-0.35-0.08-0.5-0.13c-0.02-0.01-0.04-0.01-0.06-0.01c-0.53-0.18-0.94-0.54-1.27-0.98c-0.09-0.12-0.21-0.23-0.28-0.37
				c-0.14-0.27-0.24-0.58-0.32-0.96c-0.09-0.43-0.15-0.96-0.21-1.68c-0.07-0.96-0.11-2.04-0.11-3.23c0-0.19,0-0.35,0-0.53
				c-0.61-0.53-1.3-1-2.08-1.41c-0.23-0.1-0.48-0.18-0.71-0.27c-0.31-0.12-0.62-0.25-0.94-0.35c-0.13-0.04-0.27-0.07-0.4-0.1
				c-0.44-0.13-0.88-0.24-1.34-0.33c-0.58-0.11-1.17-0.19-1.77-0.25c-0.54-0.05-1.08-0.08-1.64-0.08c-1.01,0-1.92,0.08-2.76,0.22
				c-0.76,0.13-1.45,0.32-2.06,0.57c-2.09,0.86-3.78,2.24-5.09,4.15c-0.31,0.45-0.57,0.9-0.81,1.36c-0.42,0.83-0.71,1.69-0.9,2.56
				c-0.15,0.71-0.26,1.42-0.26,2.16c0,0.82,0.13,1.63,0.35,2.45c0.14,0.51,0.31,1.02,0.54,1.53c0.2,0.45,0.45,0.88,0.72,1.31
				c0.53,0.84,1.17,1.65,1.96,2.41c1.06,0.89,2.3,1.47,3.73,1.74l0.75,0.15c1.69,0.33,3.03,0.74,4.02,1.24
				c0.99,0.5,1.57,1.36,1.74,2.58c0.03,0.17,0.05,0.4,0.05,0.7c0,0.79-0.22,1.41-0.67,1.84c-0.45,0.43-1,0.65-1.66,0.65
				c-0.76,0-1.43-0.28-2.01-0.84c-0.58-0.56-0.89-1.34-0.92-2.34c-0.1,0-0.18,0-0.28,0c-0.52,0-0.98,0-1.38-0.01
				c-0.75-0.01-1.33-0.02-1.71-0.04c-0.23-0.01-0.51-0.02-0.78-0.03c-0.53-0.01-1.1-0.02-1.75-0.02c-0.45,0-0.86,0.02-1.28,0.05
				c-0.19,0.01-0.37,0.02-0.55,0.04c-0.28,0.02-0.54,0.06-0.81,0.1c-0.18,0.02-0.37,0.04-0.54,0.07V57
				c-0.05,0.86,0.04,1.66,0.22,2.44c0.18,0.77,0.47,1.49,0.88,2.18c0.18,0.3,0.36,0.61,0.59,0.9c1.26,1.59,2.91,2.81,4.94,3.65
				c1.09,0.45,2.2,0.77,3.32,0.98c0.98,0.18,1.96,0.28,2.97,0.28c0.11,0,0.21-0.02,0.32-0.02c1.15-0.03,2.24-0.22,3.29-0.55
				c0.77-0.25,1.53-0.55,2.25-0.97c1.58-0.91,2.78-2.16,3.64-3.72c0.11-0.2,0.24-0.39,0.34-0.6c0.56-1.19,0.91-2.41,1.06-3.65
				c0.05-0.45,0.09-0.91,0.09-1.37c0-0.41-0.05-0.83-0.11-1.26c-0.09-0.59-0.22-1.19-0.43-1.8c-0.25-0.71-0.58-1.36-0.95-1.98
				c-0.17-0.3-0.34-0.6-0.54-0.87c-1.03-1.32-2.38-2.48-4.07-3.48c-0.41-0.24-0.82-0.46-1.23-0.66c-1.27-0.61-2.53-1.01-3.78-1.18
				c-0.08-0.01-0.14-0.04-0.21-0.05c-0.53-0.11-1.01-0.26-1.4-0.5c-0.37-0.22-0.66-0.63-0.88-1.15c-0.04-0.1-0.1-0.17-0.14-0.29
				v-0.1l-0.05-0.45c0-0.23,0.05-0.5,0.15-0.79c0.07-0.63,0.29-1.1,0.67-1.42c0.38-0.31,0.82-0.47,1.32-0.47
				c0.7,0,1.32,0.25,1.89,0.74c0.56,0.5,0.84,1.13,0.84,1.89c0,0.13-0.03,0.37-0.1,0.7C223.55,43.6,224.13,43.7,224.73,43.79z"/>
			<path class="st1" d="M253.97,32.17c-0.67-0.08-1.41-0.15-2.17-0.21c-0.44-0.04-0.92-0.07-1.39-0.1
				c-2.46-0.16-5.26-0.24-8.51-0.24l-1.98,0.03l-0.9,0.02h-2.78l-1.94,0.05h-2.14c-0.02,0.45-0.03,1.11-0.04,1.93
				c0,0.49-0.01,1.03-0.01,1.65c0,0.18,0.01,0.33,0.01,0.5c0.01,0.92,0.04,1.77,0.09,2.53c0.07,0.89,0.15,1.44,0.25,1.64
				c0.28,0.09,0.66,0.16,1.14,0.2c0.37,0.03,0.8,0.05,1.3,0.05l0.05,0l1.93-0.05c0.66,0,1.17,0.08,1.54,0.25
				c0.26,5.73,0.4,11.61,0.4,17.63l-0.05,4.47v2.43c-0.03,0.43-0.02,0.9,0.02,1.42c0.03,0.28,0.06,0.5,0.1,0.67
				c0.04,0.15,0.07,0.27,0.12,0.35c1.39-0.23,2.91-0.35,4.57-0.35h0.63h0.82c0.19,0,0.35-0.01,0.53-0.02
				c1.06-0.02,2.03-0.09,2.85-0.23c-0.23-12.78-0.35-20.63-0.35-23.54c0-0.05,0-0.09,0-0.14c0-0.52,0.01-0.97,0.02-1.35
				c0.01-0.61,0.04-1.06,0.07-1.35c0-0.03,0.01-0.07,0.01-0.09c0-0.08,0.25-0.12,0.75-0.14c0.16-0.01,0.33-0.01,0.54-0.01l0.81,0.02
				l1.35,0.03l0.17,0c0.63,0,1.49,0.1,2.58,0.3c0.23-1.52,0.35-3.25,0.35-5.17c0-0.99-0.03-2.05-0.1-3.18H253.97z"/>
			<path class="st1" d="M283.99,31.49c-0.39-0.03-0.78-0.07-1.15-0.07c-0.07,0-0.13,0.01-0.2,0.01c-0.96,0.01-1.87,0.08-2.76,0.19
				c-0.46,0.06-0.92,0.11-1.36,0.19c-0.03,0.96-0.05,2.72-0.05,5.27c0,3.15,0.03,5.88,0.1,8.2l-1.99-4.57
				c-0.63-1.52-1.28-3.06-1.96-4.59c-0.63-1.44-1.17-2.57-1.62-3.41c-0.03-0.06-0.07-0.13-0.1-0.19c-0.26-0.18-0.68-0.32-1.23-0.44
				c-0.28-0.06-0.58-0.11-0.93-0.16c-0.15-0.02-0.27-0.03-0.41-0.04c-0.08-0.01-0.16-0.02-0.23-0.02c-0.6-0.06-1.15-0.1-1.63-0.12
				c-0.12,0-0.27-0.02-0.38-0.02c-0.9,0-1.71,0.1-2.48,0.25c-0.17,0.03-0.34,0.05-0.5,0.09c-0.3,3.61-0.45,8.08-0.45,13.41
				c0,3.97,0.02,6.94,0.05,8.89c0.07,3.91,0.1,6.92,0.1,9.04v3.73l2.08,0.09l0.35,0.01c0.33,0,0.86,0.03,1.59,0.1
				c0.08,0.01,0.14,0.01,0.22,0.02c0.54,0.05,0.98,0.08,1.27,0.08c0.02,0,0.04,0,0.06,0c0.2,0,0.38-0.03,0.58-0.04
				c0.49-0.03,0.95-0.08,1.4-0.17c0.3-0.06,0.61-0.11,0.89-0.19c-0.01-0.29-0.02-0.7-0.03-1.18c-0.01-0.78-0.02-1.77-0.02-3.05
				v-9.54c0.66,1.76,2.04,4.92,4.12,9.49l1.99,4.42c0.05-0.02,0.16-0.03,0.34-0.03c0.18,0,0.42,0.01,0.73,0.03
				c0.17,0.01,0.31,0.02,0.47,0.03c0.4,0.02,0.76,0.05,1.05,0.07c0.28,0.02,0.53,0.04,0.77,0.06c0.57,0.04,1.02,0.07,1.33,0.09
				c0.06,0,0.1,0,0.15,0c0.07,0,0.15,0.01,0.19,0.01c0.09,0,0.15,0,0.18-0.01c0.7,0,1.19-0.06,1.53-0.15
				c0.06-0.02,0.16-0.03,0.21-0.05c0.3-0.1,0.5-0.15,0.6-0.15v-0.88v-4.7c-0.16-0.88-0.27-1.8-0.31-2.79l-0.09-1.48
				c-0.03-0.28-0.06-0.74-0.06-1.79c-0.16-2.72-0.25-5.37-0.25-7.88c0-1.58,0.05-3.18,0.15-4.73c0.08-1.25,0.28-2.47,0.55-3.69v-5.3
				v-1.53v-0.45c-0.52-0.11-1.02-0.18-1.53-0.25C284.88,31.56,284.43,31.52,283.99,31.49z"/>
			<path class="st1" d="M308.31,34.3c-0.09-0.07-0.21-0.12-0.3-0.18c-0.43-0.3-0.88-0.59-1.36-0.83c-0.42-0.21-0.88-0.36-1.34-0.53
				c-0.13-0.05-0.25-0.1-0.38-0.15c-0.11-0.04-0.2-0.09-0.32-0.12c-1-0.29-2.06-0.45-3.15-0.53c-0.45-0.03-0.88-0.09-1.34-0.09
				c-0.95,0-1.87,0.1-2.76,0.24c-1.47,0.24-2.88,0.66-4.19,1.3l-1.09,0.6c-0.99,1.19-1.73,2.58-2.21,4.15
				c-0.13,0.43-0.21,0.86-0.31,1.29c-0.27,1.16-0.48,2.34-0.56,3.55c-0.1,1.52-0.15,3.05-0.15,4.57c0,2.48,0.08,5.08,0.25,7.8
				c0,0.83,0.02,1.37,0.05,1.64l0.1,1.59c0.03,0.98,0.14,1.88,0.31,2.72c0.22,1.08,0.54,2.05,0.98,2.89
				c0.6,1.13,1.53,1.98,2.81,2.56c0.96,0.44,2.05,0.71,3.22,0.89c0.38,0.06,0.73,0.15,1.13,0.18c0.3,0.03,0.83,0.05,1.59,0.05
				c0.54,0,1.02-0.05,1.52-0.09c1.02-0.08,1.98-0.21,2.8-0.46c0.39-0.11,0.76-0.25,1.13-0.38c0.76-0.27,1.48-0.56,2.15-0.92
				c0.19-0.1,0.33-0.22,0.51-0.33c0.4-0.25,0.76-0.52,1.07-0.81c0.24-0.23,0.48-0.45,0.66-0.69c0.08-0.12,0.13-0.26,0.2-0.38
				c0.6-1.03,1.05-2.18,1.36-3.43c-0.02-0.22-0.07-0.43-0.08-0.66c0-0.03,0-0.06,0-0.1c0-2.49,0.03-6.16,0.1-10.92l0.05-3.24
				c0.06-3.21,0.09-5.64,0.1-7.31c-0.08-0.25-0.14-0.49-0.24-0.74C310.23,36.41,309.47,35.36,308.31,34.3z M296.69,58.39v0.05
				c-0.05-0.17-0.1-0.37-0.14-0.58c-0.17-0.77-0.3-1.79-0.4-3.09l-0.05-0.7c-0.07-1.09-0.17-1.97-0.3-2.63v0.05
				c-0.03-0.56-0.05-1.41-0.05-2.53c0-2.25,0.17-4.11,0.5-5.56c0.08-0.27,0.19-0.53,0.31-0.79c0.16-0.36,0.34-0.72,0.56-1.07
				c0.1-0.16,0.21-0.29,0.31-0.44c0.28-0.39,0.57-0.74,0.86-0.98c0.76-0.53,1.54-0.79,2.34-0.79c0.26,0,0.53,0.05,0.79,0.15
				c0.6,0.3,1.08,0.8,1.46,1.51c0.38,0.71,0.6,1.53,0.67,2.46l0.2,2.58v0.25l0.1,3.38v2.38l-0.05,0.94v0.7l-0.05,0.94l-0.05,0.65
				c-0.03,0.26-0.05,0.68-0.05,1.24c0,0.63-0.04,1.09-0.12,1.39c-0.08,0.3-0.29,0.66-0.62,1.09c-0.4,0.46-0.87,0.82-1.42,1.07
				c-0.55,0.25-1.08,0.37-1.61,0.37c-0.66,0-1.28-0.17-1.86-0.52c-0.32-0.19-0.58-0.44-0.81-0.72
				C297,58.95,296.82,58.7,296.69,58.39z"/>
			<path class="st1" d="M335.83,33.46c-0.49-0.29-1.33-0.44-2.48-0.48c-0.01,0-0.01,0-0.02,0c-0.16-0.01-0.31-0.02-0.49-0.02
				c-0.05-0.01-0.13-0.01-0.22-0.01c-0.15,0-0.37,0.01-0.62,0.03c-0.01,0-0.02,0-0.03,0c-0.35,0.02-0.79,0.06-1.33,0.11
				c-0.08,0.01-0.15,0.01-0.23,0.02c-0.29,0.04-0.54,0.06-0.79,0.08c-0.42,0.04-0.81,0.07-1.1,0.07l-1.04,0.15
				c-0.07,2.78-0.1,4.97-0.1,6.56l-0.05,3.18c-0.07,6.59-0.17,11.41-0.3,14.45v-0.05c-0.17,0.66-0.48,1.21-0.94,1.64
				c-0.46,0.43-0.96,0.65-1.49,0.65c-0.46,0-0.89-0.17-1.29-0.52c-0.4-0.35-0.69-0.85-0.89-1.51v0.05
				c-0.32-4.36-0.52-8.44-0.61-12.22c-0.03-1.27-0.04-2.51-0.04-3.72c0-1.99,0.07-4.83,0.2-8.54c-0.39-0.12-0.84-0.18-1.27-0.26
				c-0.42-0.08-0.85-0.14-1.31-0.18c-0.1-0.01-0.2-0.01-0.3-0.02c-0.46-0.03-0.9-0.08-1.39-0.08l-0.01,0l-2.97,0.1h-0.85h-0.39
				c0.03,1.03,0.05,2.63,0.05,4.82c0,0.01,0,0.03,0,0.04c0,1.69-0.03,4.27-0.1,7.76l-0.05,3.23c-0.07,4.83-0.1,8.46-0.1,10.88
				c0.01,0.32,0.06,0.62,0.11,0.92c0.21,1.42,0.79,2.66,1.76,3.7c1.17,1.26,2.66,2.19,4.45,2.81c0.86,0.29,1.73,0.51,2.63,0.66
				c0.97,0.17,1.97,0.25,2.98,0.25c0.19,0,0.43-0.03,0.63-0.04c0.33-0.02,0.64-0.02,1-0.06h-0.05c0.73-0.07,1.41-0.21,2.06-0.39
				c0.56-0.15,1.08-0.35,1.58-0.59c0.47-0.22,0.92-0.48,1.35-0.78c0.39-0.27,0.76-0.56,1.1-0.9c0.09-0.09,0.16-0.19,0.24-0.28
				c1.41-1.49,2.26-3.3,2.51-5.46c0.09-0.79,0.16-1.61,0.23-2.42c-0.01-0.84-0.03-1.72-0.04-2.65c-0.03-1.95-0.05-4.87-0.05-8.94
				c0-4.64,0.12-8.65,0.35-12.02H335.83z"/>
			<path class="st1" d="M357.79,31.49c-0.39-0.03-0.78-0.07-1.15-0.07c-0.07,0-0.13,0.01-0.2,0.01c-0.95,0.01-1.87,0.08-2.76,0.19
				c-0.46,0.06-0.92,0.11-1.36,0.19c-0.03,0.96-0.05,2.72-0.05,5.27c0,3.15,0.03,5.88,0.1,8.2l-1.99-4.57
				c-0.63-1.52-1.28-3.06-1.96-4.59c-0.63-1.44-1.17-2.57-1.62-3.41c-0.03-0.06-0.07-0.13-0.1-0.19c-0.26-0.18-0.68-0.32-1.23-0.44
				c-0.28-0.06-0.58-0.11-0.93-0.16c-0.15-0.02-0.27-0.03-0.41-0.04c-0.08-0.01-0.16-0.02-0.23-0.02c-0.6-0.06-1.15-0.1-1.63-0.12
				c-0.12,0-0.27-0.02-0.38-0.02c-0.9,0-1.71,0.1-2.48,0.25c-0.17,0.03-0.34,0.05-0.5,0.09c-0.02,0.3-0.04,0.65-0.07,0.96
				c-0.25,3.44-0.38,7.57-0.38,12.45c0,3.97,0.02,6.94,0.05,8.89c0.02,0.99,0.03,1.92,0.04,2.8c0.04,2.58,0.06,4.66,0.06,6.24v3.73
				l2.08,0.09l0.35,0.01c0.33,0,0.86,0.03,1.59,0.1c0.09,0.01,0.14,0.01,0.22,0.02c0.54,0.05,0.98,0.08,1.27,0.08
				c0.02,0,0.04,0,0.06,0c0.2,0,0.38-0.03,0.58-0.04c0.48-0.03,0.95-0.08,1.4-0.17c0.3-0.06,0.61-0.11,0.89-0.19
				c-0.01-0.29-0.02-0.7-0.03-1.18c-0.01-0.78-0.02-1.77-0.02-3.05v-9.54c0.66,1.76,2.04,4.92,4.12,9.49l1.99,4.42
				c0.05-0.02,0.16-0.03,0.34-0.03s0.42,0.01,0.73,0.03c0.17,0.01,0.31,0.02,0.47,0.03c0.4,0.02,0.76,0.05,1.05,0.07
				c0.28,0.02,0.53,0.04,0.77,0.06c0.57,0.04,1.02,0.07,1.33,0.09c0.14,0.01,0.26,0.01,0.35,0.01c0.09,0,0.15,0,0.18-0.01
				c0.49,0,0.87-0.03,1.19-0.08c0.22-0.03,0.42-0.07,0.55-0.12c0.3-0.1,0.5-0.15,0.6-0.15V66.5v-1.6v-1.88
				c-1.1-1.82-1.63-3.86-1.5-6.1v-0.37c0-0.08,0.03-0.15,0.04-0.24c0.05-0.5,0.22-0.97,0.51-1.36c0.25-0.34,0.57-0.6,0.95-0.79
				v-1.66v-1.64v-3.11c-0.66-1.57-1-3.16-1-4.76c0-1.7,0.36-3.33,1-4.9v-3.26V33.1v-1.23c-0.16-0.03-0.32-0.05-0.48-0.08
				C359.37,31.64,358.57,31.54,357.79,31.49z"/>
			<path class="st1" d="M383.71,50.65c-1.03-1.32-2.38-2.48-4.07-3.48c-0.41-0.24-0.82-0.46-1.23-0.66
				c-1.27-0.61-2.53-1.01-3.78-1.18c-0.08-0.01-0.14-0.04-0.21-0.05c-0.53-0.11-1.01-0.26-1.4-0.5c-0.37-0.22-0.66-0.63-0.88-1.15
				c-0.04-0.1-0.1-0.17-0.14-0.29v-0.1l-0.05-0.45c0-0.23,0.05-0.5,0.15-0.79c0.07-0.63,0.29-1.1,0.67-1.42
				c0.38-0.31,0.82-0.47,1.32-0.47c0.69,0,1.32,0.25,1.89,0.74c0.56,0.5,0.84,1.13,0.84,1.89c0,0.13-0.03,0.37-0.1,0.7
				c0.52,0.16,1.1,0.26,1.7,0.35c0.8,0.12,1.65,0.2,2.58,0.2c0.17,0,0.35-0.02,0.52-0.02c0.46-0.01,0.92-0.02,1.39-0.06
				c0.73-0.06,1.47-0.14,2.22-0.27h0.6c0.2-1.06,0.3-1.92,0.3-2.58c0-1.76-0.45-3.28-1.34-4.57c-0.89-1.29-2.1-2.34-3.63-3.13
				c-0.54-0.24-1.09-0.45-1.65-0.63c-1.11-0.35-2.28-0.58-3.51-0.68c-0.54-0.05-1.08-0.08-1.64-0.08c-1.01,0-1.92,0.08-2.76,0.22
				c-0.76,0.13-1.45,0.32-2.06,0.57c-2.09,0.86-3.78,2.24-5.09,4.15c-0.38,0.55-0.69,1.12-0.96,1.69c-0.66,1.4-1,2.86-1,4.39
				c0,1.33,0.3,2.65,0.89,3.97c0.03,0.07,0.08,0.14,0.11,0.22c0.59,1.24,1.45,2.41,2.57,3.51c1.06,0.89,2.3,1.47,3.73,1.74
				l0.75,0.15c1.69,0.33,3.03,0.74,4.02,1.24c0.99,0.5,1.57,1.36,1.74,2.58c0.03,0.17,0.05,0.4,0.05,0.7c0,0.79-0.22,1.41-0.67,1.84
				c-0.45,0.43-1,0.65-1.66,0.65c-0.76,0-1.43-0.28-2.01-0.84c-0.58-0.56-0.89-1.34-0.92-2.34c-0.1,0-0.18,0-0.28,0
				c-0.52,0-0.98,0-1.39-0.01c-0.75-0.01-1.33-0.02-1.71-0.04c-0.23-0.01-0.51-0.02-0.78-0.03c-0.53-0.01-1.1-0.02-1.75-0.02
				c-0.59,0-1.14,0.02-1.68,0.06c-0.05,0-0.1,0.01-0.16,0.02c-0.41,0.04-0.81,0.08-1.19,0.15c-0.05,0.01-0.11,0.01-0.15,0.02V57
				c-0.05,0.74,0.03,1.44,0.15,2.12c0.21,1.12,0.65,2.16,1.35,3.11c0.07,0.09,0.11,0.19,0.19,0.29c1.26,1.59,2.91,2.81,4.94,3.65
				c1.09,0.45,2.2,0.77,3.32,0.98c0.98,0.18,1.96,0.28,2.97,0.28c0.11,0,0.21-0.02,0.31-0.02c1.15-0.03,2.25-0.22,3.3-0.55
				c0.77-0.25,1.53-0.55,2.25-0.97c1.79-1.03,3.11-2.47,3.97-4.32c0.76-1.62,1.14-3.29,1.14-5.02c0-0.99-0.18-2.01-0.55-3.06
				C384.83,52.46,384.34,51.51,383.71,50.65z"/>
		</g>
		<g>
			<path d="M199.89,46.03l-0.2-2.58c-0.07-0.93-0.29-1.75-0.67-2.46c-0.38-0.71-0.87-1.22-1.46-1.51c-0.27-0.1-0.53-0.15-0.79-0.15
				c-0.79,0-1.57,0.27-2.34,0.79c-0.29,0.24-0.57,0.59-0.86,0.98c-0.1,0.14-0.21,0.27-0.31,0.44c-0.22,0.35-0.4,0.71-0.56,1.07
				c-0.12,0.26-0.23,0.53-0.31,0.79c-0.33,1.46-0.5,3.31-0.5,5.56c0,1.13,0.02,1.97,0.05,2.53v-0.05c0.13,0.66,0.23,1.54,0.3,2.63
				l0.05,0.7c0.1,1.3,0.24,2.33,0.4,3.09c0.05,0.21,0.09,0.41,0.14,0.58v-0.05c0.14,0.3,0.31,0.56,0.5,0.8
				c0.23,0.28,0.5,0.53,0.81,0.72c0.58,0.35,1.2,0.52,1.86,0.52c0.53,0,1.07-0.12,1.61-0.37c0.55-0.25,1.02-0.6,1.42-1.07
				c0.33-0.43,0.54-0.79,0.62-1.09c0.08-0.3,0.12-0.76,0.12-1.39c0-0.56,0.02-0.98,0.05-1.24l0.05-0.65l0.05-0.94v-0.7l0.05-0.94
				v-2.38l-0.1-3.38V46.03z"/>
			<path d="M303.74,46.03l-0.2-2.58c-0.07-0.93-0.29-1.75-0.67-2.46c-0.38-0.71-0.87-1.22-1.46-1.51c-0.27-0.1-0.53-0.15-0.79-0.15
				c-0.79,0-1.57,0.27-2.34,0.79c-0.29,0.24-0.57,0.59-0.86,0.98c-0.1,0.14-0.21,0.27-0.31,0.44c-0.22,0.35-0.4,0.71-0.56,1.07
				c-0.12,0.26-0.23,0.53-0.31,0.79c-0.33,1.46-0.5,3.31-0.5,5.56c0,1.13,0.02,1.97,0.05,2.53v-0.05c0.13,0.66,0.23,1.54,0.3,2.63
				l0.05,0.7c0.1,1.3,0.24,2.32,0.4,3.09c0.05,0.21,0.09,0.41,0.14,0.58v-0.05c0.14,0.3,0.31,0.56,0.5,0.8
				c0.23,0.28,0.5,0.53,0.81,0.72c0.58,0.35,1.2,0.52,1.86,0.52c0.53,0,1.07-0.12,1.61-0.37c0.55-0.25,1.02-0.6,1.42-1.07
				c0.33-0.43,0.54-0.79,0.62-1.09c0.08-0.3,0.12-0.76,0.12-1.39c0-0.56,0.02-0.98,0.05-1.24l0.05-0.65l0.05-0.94v-0.7l0.05-0.94
				v-2.38l-0.1-3.38V46.03z"/>
			<path d="M385.88,49.06c-0.02-0.02-0.03-0.04-0.05-0.06c-0.68-0.87-1.47-1.68-2.37-2.43c0.62-0.06,1.23-0.13,1.85-0.23h0.38
				c1.3,0,2.41-0.92,2.65-2.2c0.23-1.23,0.34-2.24,0.34-3.08c0-2.31-0.61-4.36-1.82-6.1c-1.14-1.65-2.69-2.99-4.59-3.98
				c-0.05-0.02-0.09-0.05-0.14-0.07c-2.39-1.08-5.06-1.63-7.91-1.63c-0.98,0-1.89,0.07-2.75,0.2c-0.89-0.12-1.8-0.2-2.74-0.2
				c-2.26,0-4.23,0.33-5.84,1c-0.02,0.01-0.04,0.02-0.06,0.03c-0.38-0.52-0.93-0.92-1.6-1.07c-1.57-0.34-3.11-0.51-4.59-0.51
				c-1.01,0-1.98,0.07-2.93,0.18c-0.87-0.11-1.73-0.18-2.56-0.18c-1.69,0-3.32,0.15-4.84,0.45c-0.2,0.04-0.38,0.13-0.56,0.21
				c-0.27-0.05-0.55-0.1-0.87-0.14c-1.17-0.15-2.15-0.22-3-0.22c-0.88,0-1.71,0.09-2.5,0.22c-1.17-0.15-2.15-0.22-2.99-0.22
				c-1.31,0-2.54,0.15-3.65,0.43c-0.55,0.14-1.03,0.45-1.38,0.86c-0.33,0.03-0.7,0.06-1.21,0.11c-0.02,0-0.05,0.01-0.07,0.01
				c-0.11,0.01-0.2,0.02-0.29,0.03c-0.67-0.13-1.43-0.2-2.32-0.2c-0.1-0.01-0.21-0.01-0.33-0.01c-0.31,0-0.9,0.02-2.47,0.17
				c-0.02,0-0.05,0.01-0.07,0.01c-0.85,0.11-1.31,0.13-1.55,0.13c-0.13,0-0.25,0.01-0.38,0.03l-0.47,0.07
				c-1.34-0.34-2.83-0.54-4.48-0.54c-0.03,0-0.06,0-0.09,0l-2.93,0.1h-0.86c-0.53-0.04-1.05-0.1-1.61-0.1c-0.03,0-0.06,0-0.09,0
				l-2.93,0.1h-1.2c-0.4,0-0.78,0.1-1.14,0.26c-0.49-0.2-0.96-0.42-1.48-0.57c-1.65-0.49-3.42-0.73-5.26-0.73
				c-0.92,0-1.82,0.08-2.7,0.2c-0.91-0.13-1.84-0.2-2.8-0.2c-2.03,0-3.96,0.31-5.79,0.9c-0.37-0.41-0.85-0.72-1.41-0.84
				c-1.57-0.34-3.11-0.51-4.59-0.51c-1.01,0-1.98,0.07-2.93,0.18c-0.87-0.11-1.73-0.18-2.56-0.18c-1.69,0-3.32,0.15-4.84,0.45
				c-0.2,0.04-0.38,0.13-0.56,0.21c-0.27-0.05-0.55-0.1-0.87-0.14c-1.17-0.15-2.15-0.22-3-0.22c-0.88,0-1.71,0.09-2.5,0.22
				c-1.17-0.15-2.15-0.22-2.99-0.22c-1.31,0-2.54,0.15-3.65,0.43c-0.87,0.22-1.54,0.86-1.84,1.67c-0.41-0.98-1.36-1.66-2.48-1.66
				h-0.49c-3.18-0.36-7.3-0.55-12.22-0.55c-0.02,0-0.03,0-0.05,0l-1.94,0.03c-1.12-0.02-2.29-0.03-3.51-0.03c-0.02,0-0.03,0-0.05,0
				l-2.88,0.05l-2.73,0c-0.02,0-0.05,0-0.07,0l-1.9,0.05h-2.1c-0.7,0-1.33,0.27-1.81,0.71c-1.38-0.3-2.82-0.46-4.32-0.46
				c-0.98,0-1.89,0.07-2.75,0.2c-0.89-0.12-1.8-0.2-2.74-0.2c-2.26,0-4.23,0.33-5.84,1c-1.16,0.48-2.21,1.11-3.18,1.85
				c-1.3-0.97-2.82-1.72-4.52-2.22c-1.65-0.49-3.42-0.73-5.26-0.73c-0.92,0-1.82,0.08-2.7,0.2c-0.91-0.13-1.84-0.2-2.8-0.2
				c-2.91,0-5.65,0.61-8.13,1.81c-0.04,0.02-0.08,0.04-0.12,0.06l-1.09,0.6c-0.3,0.16-0.56,0.38-0.78,0.64
				c-1.22,1.47-2.14,3.18-2.72,5.09c-0.54,1.76-0.87,3.6-0.98,5.46c-0.1,1.55-0.15,3.15-0.15,4.73c0,2.51,0.08,5.16,0.25,7.88
				c0,0.32,0,0.56,0.01,0.79l-0.81-0.03c-0.49-0.03-0.97-0.06-1.43-0.08v-0.61c0-3.87-0.02-6.84-0.05-8.84
				c-0.07-3.9-0.1-6.9-0.1-8.9c0-1.41,0.03-3.31,0.1-5.64c0.03-1.12-0.63-2.14-1.67-2.57c-0.78-0.32-1.72-0.55-2.87-0.72
				c-1.05-0.15-2.12-0.23-3.16-0.23c-0.9,0-1.81,0.06-2.71,0.18c-0.93-0.12-1.86-0.18-2.78-0.18c-0.95,0-1.91,0.07-2.86,0.2
				c-1.03,0.15-1.83,0.33-2.47,0.55c-1.09,0.39-1.8,1.42-1.79,2.58l0.05,3.23c0,1.42,0.02,2.43,0.05,3.06v1.76v1.19
				c0.07,3.98,0.1,6.79,0.1,8.39c0,5.46-0.12,10.97-0.35,16.38c0,0.04,0,0.08,0,0.11v1.14c0,1.47,1.18,2.67,2.65,2.69
				c2.32,0.03,5.39,0.05,9.13,0.05c0.81,0,1.56,0,2.3-0.01c1.01,0,2.06,0.01,3.2,0.01c4.02,0,7.1-0.03,9.18-0.1l1.17-0.05l0.66,0.04
				c0.06,0,0.11,0.01,0.17,0.01h0.35c0.53,0,0.94-0.03,1.31-0.09c1.14,0.36,2.37,0.61,3.68,0.72c0.26,0.03,0.75,0.06,1.84,0.06
				c0.97,0,1.88-0.06,2.74-0.17c0.3,0.04,0.6,0.09,0.91,0.11c0.26,0.03,0.75,0.06,1.84,0.06c1.91,0,3.62-0.22,5.09-0.66
				c1.34-0.37,2.63-0.88,3.78-1.5c0.59-0.31,1.11-0.66,1.59-1.04c0.76,0.48,1.55,0.92,2.42,1.28c2.35,0.98,4.81,1.47,7.31,1.47
				c0.88,0,1.74-0.1,2.58-0.25c0.96,0.15,1.93,0.25,2.91,0.25c2.59,0,5.01-0.64,7.2-1.9c0.87-0.5,1.63-1.1,2.33-1.76
				c0,0.06,0,0.1,0,0.16c0.09,0.96,0.27,1.6,0.59,2.13c0.49,0.82,1.37,1.32,2.31,1.32c0.15,0,0.29-0.01,0.44-0.04
				c1.13-0.19,2.4-0.28,3.76-0.3c0.39,0.21,0.83,0.33,1.29,0.33c0.15,0,0.29-0.01,0.44-0.04c1.24-0.21,2.63-0.31,4.13-0.31h1.44
				c1.43,0,2.72-0.1,3.83-0.29c1.31-0.23,2.26-1.37,2.24-2.7c-0.23-12.69-0.35-20.59-0.35-23.5c0-0.13,0-0.25,0-0.36l0.98,0.02
				c0.38,0,1,0.04,2.16,0.26c0.16,0.03,0.32,0.04,0.48,0.04c0.56,0,1.1-0.17,1.56-0.5c0.22-0.16,0.4-0.35,0.56-0.56
				c-0.01,1.08-0.02,2.18-0.02,3.33c0,4.06,0.02,6.99,0.05,8.94c0.07,3.87,0.1,6.9,0.1,8.99v3.73c0,1.44,1.14,2.63,2.58,2.69
				l2.43,0.1c0.04,0,0.07,0,0.11,0c0.12,0,0.48,0.01,1.34,0.09c0.75,0.07,1.31,0.11,1.74,0.11c0.79,0,1.54-0.08,2.26-0.2l0.04,0
				c0.04,0,0.07,0,0.11,0c0.12,0,0.48,0.01,1.34,0.09c0.75,0.07,1.31,0.11,1.74,0.11c1.02,0,1.97-0.13,2.89-0.34
				c0.2,0.05,0.4,0.09,0.61,0.09c0.12,0,0.24-0.01,0.36-0.02c0.17,0,0.34,0.01,0.56,0.02c0.58,0.03,1.06,0.06,1.44,0.09
				c1.81,0.15,2.39,0.17,2.67,0.17c0.09,0,0.2,0,0.32-0.01c0.81-0.01,1.44-0.07,1.98-0.2c0.19,0.01,0.37,0.03,0.52,0.04
				c1.81,0.15,2.39,0.17,2.67,0.17c0.09,0,0.2,0,0.32-0.01c1.09-0.01,1.87-0.12,2.51-0.35c0.02-0.01,0.04-0.01,0.06-0.02
				c0.17-0.02,0.32-0.1,0.47-0.15c1.3,0.47,2.72,0.79,4.24,0.91c0.26,0.03,0.75,0.06,1.84,0.06c0.97,0,1.88-0.06,2.74-0.17
				c0.3,0.04,0.6,0.09,0.91,0.11c0.26,0.03,0.75,0.06,1.84,0.06c1.91,0,3.62-0.22,5.09-0.66c1.34-0.37,2.63-0.88,3.78-1.5
				c0.47-0.25,0.88-0.52,1.28-0.81c1.12,0.83,2.38,1.51,3.8,2c2.06,0.71,4.25,1.06,6.49,1.06c0.59,0,1.25-0.04,1.94-0.12
				c0.05-0.01,0.09-0.01,0.14-0.02c0.17-0.02,0.31-0.06,0.48-0.09c0.97,0.14,1.95,0.22,2.94,0.22c0.59,0,1.25-0.04,1.94-0.12
				c0.05-0.01,0.09-0.01,0.14-0.02c1.57-0.17,3.01-0.58,4.31-1.19c0.41,0.28,0.9,0.46,1.43,0.48l2.43,0.1c0.04,0,0.07,0,0.11,0
				c0.12,0,0.48,0.01,1.34,0.09c0.75,0.07,1.31,0.11,1.74,0.11c0.79,0,1.54-0.08,2.26-0.2l0.04,0c0.04,0,0.07,0,0.11,0
				c0.12,0,0.48,0.01,1.34,0.09c0.75,0.07,1.31,0.11,1.74,0.11c1.01,0,1.97-0.13,2.89-0.34c0.2,0.05,0.4,0.09,0.61,0.09
				c0.12,0,0.24-0.01,0.36-0.02c0.17,0,0.34,0.01,0.56,0.02c0.58,0.03,1.06,0.06,1.44,0.09c1.81,0.15,2.39,0.17,2.67,0.17
				c0.09,0,0.2,0,0.32-0.01c0.81-0.01,1.44-0.07,1.98-0.2c0.19,0.01,0.37,0.03,0.52,0.04c1.81,0.15,2.39,0.17,2.67,0.17
				c0.09,0,0.2,0,0.32-0.01c1.09-0.01,1.87-0.12,2.51-0.35c0.02-0.01,0.04-0.01,0.06-0.02c0.64-0.09,1.2-0.4,1.61-0.85
				c2.15,0.8,4.37,1.23,6.63,1.23c0.88,0,1.74-0.1,2.58-0.25c0.96,0.15,1.93,0.25,2.91,0.25c2.59,0,5.01-0.64,7.2-1.9
				c2.27-1.3,3.98-3.16,5.08-5.52c0.92-1.97,1.39-4.04,1.39-6.15c0-1.29-0.23-2.62-0.7-3.94C387.29,51.33,386.66,50.13,385.88,49.06
				z M254.37,40.51c-1.09-0.2-1.95-0.3-2.58-0.3l-0.17,0l-1.35-0.03l-0.81-0.02c-0.21,0-0.38,0-0.54,0.01
				c-0.5,0.02-0.75,0.06-0.75,0.14c0,0.02-0.01,0.06-0.01,0.09c-0.04,0.29-0.06,0.74-0.07,1.35c-0.01,0.39-0.01,0.83-0.02,1.35
				c0,0.05,0,0.09,0,0.14c0,2.91,0.12,10.76,0.35,23.54c-0.82,0.14-1.79,0.21-2.85,0.23c-0.18,0-0.34,0.02-0.53,0.02h-0.82h-0.63
				c-1.66,0-3.18,0.12-4.57,0.35c-0.05-0.08-0.08-0.2-0.12-0.35c-0.04-0.18-0.08-0.39-0.1-0.67c-0.05-0.51-0.06-0.98-0.02-1.42
				v-2.43l0.05-4.47c0-6.03-0.13-11.9-0.4-17.63c-0.37-0.17-0.88-0.25-1.54-0.25l-1.93,0.05l-0.05,0c-0.5,0-0.92-0.02-1.3-0.05
				c-0.47-0.04-0.86-0.1-1.14-0.2c-0.1-0.2-0.18-0.74-0.25-1.64c-0.06-0.75-0.08-1.61-0.09-2.53c0-0.17-0.01-0.32-0.01-0.5
				c0-0.62,0-1.16,0.01-1.65c0.01-0.82,0.02-1.47,0.04-1.93h2.14l1.94-0.05h2.78l0.9-0.02l1.98-0.03c3.24,0,6.05,0.09,8.51,0.24
				c0.47,0.03,0.95,0.06,1.39,0.1c0.76,0.06,1.5,0.13,2.17,0.21h0.65c0.07,1.13,0.1,2.19,0.1,3.18
				C254.72,37.27,254.6,38.99,254.37,40.51z M224.7,66.86c-1.05,0.33-2.15,0.52-3.29,0.55c-0.11,0-0.21,0.02-0.32,0.02
				c-1,0-1.99-0.1-2.97-0.28c-1.12-0.21-2.23-0.53-3.32-0.98c-2.04-0.84-3.68-2.06-4.94-3.65c-0.23-0.29-0.41-0.59-0.59-0.9
				c-0.41-0.68-0.7-1.41-0.88-2.18c-0.18-0.77-0.27-1.58-0.22-2.44v-0.45c0.17-0.03,0.36-0.04,0.54-0.07
				c0.27-0.04,0.53-0.07,0.81-0.1c0.18-0.02,0.37-0.02,0.55-0.04c0.42-0.02,0.83-0.05,1.28-0.05c0.66,0,1.23,0.01,1.75,0.02
				c0.27,0.01,0.54,0.01,0.78,0.03c0.38,0.02,0.97,0.03,1.71,0.04c0.41,0,0.87,0.01,1.38,0.01c0.1,0,0.18,0,0.28,0
				c0.03,0.99,0.34,1.77,0.92,2.34c0.58,0.56,1.25,0.84,2.01,0.84c0.66,0,1.22-0.21,1.66-0.65c0.45-0.43,0.67-1.04,0.67-1.84
				c0-0.3-0.02-0.53-0.05-0.7c-0.17-1.22-0.74-2.09-1.74-2.58c-0.99-0.5-2.34-0.91-4.02-1.24l-0.75-0.15
				c-1.42-0.26-2.67-0.84-3.73-1.74c-0.79-0.77-1.43-1.57-1.96-2.41c-0.27-0.43-0.52-0.86-0.72-1.31c-0.23-0.51-0.4-1.02-0.54-1.53
				c-0.23-0.82-0.35-1.63-0.35-2.45c0-0.74,0.1-1.45,0.26-2.16c0.19-0.87,0.47-1.73,0.9-2.56c0.24-0.46,0.5-0.92,0.81-1.36
				c1.31-1.9,3.01-3.29,5.09-4.15c0.61-0.25,1.3-0.44,2.06-0.57c0.83-0.15,1.75-0.22,2.76-0.22c0.56,0,1.11,0.03,1.64,0.08
				c0.6,0.05,1.2,0.13,1.77,0.25c0.46,0.09,0.9,0.21,1.34,0.33c0.13,0.04,0.27,0.06,0.4,0.1c0.32,0.1,0.63,0.23,0.94,0.35
				c0.24,0.09,0.48,0.17,0.71,0.27c0.77,0.4,1.47,0.87,2.08,1.41c0,0.18,0,0.34,0,0.53c0,1.19,0.04,2.27,0.11,3.23
				c0.05,0.72,0.12,1.25,0.21,1.68c0.08,0.39,0.18,0.69,0.32,0.96c0.07,0.14,0.19,0.24,0.28,0.37c0.33,0.44,0.74,0.81,1.27,0.98
				c0.02,0.01,0.04,0.01,0.06,0.01c0.16,0.05,0.33,0.09,0.5,0.13c-0.04,0.31-0.08,0.62-0.15,0.97h-0.32h-0.28
				c-0.35,0.06-0.7,0.09-1.05,0.13c-0.39,0.05-0.78,0.1-1.16,0.13c-0.46,0.04-0.93,0.05-1.39,0.06c-0.17,0-0.35,0.02-0.52,0.02
				c-0.93,0-1.78-0.08-2.58-0.2c-0.6-0.09-1.17-0.19-1.7-0.35c0.07-0.33,0.1-0.56,0.1-0.7c0-0.76-0.28-1.39-0.84-1.89
				c-0.56-0.5-1.19-0.74-1.89-0.74c-0.5,0-0.94,0.16-1.32,0.47c-0.38,0.32-0.6,0.79-0.67,1.42c-0.1,0.3-0.15,0.56-0.15,0.79
				l0.05,0.45v0.1c0.04,0.11,0.1,0.19,0.14,0.29c0.22,0.52,0.5,0.93,0.88,1.15c0.39,0.23,0.87,0.39,1.4,0.5
				c0.07,0.01,0.14,0.04,0.21,0.05c1.25,0.18,2.51,0.57,3.78,1.18c0.41,0.2,0.82,0.42,1.23,0.66c1.69,0.99,3.05,2.15,4.07,3.48
				c0.2,0.28,0.37,0.58,0.54,0.87c0.37,0.62,0.7,1.27,0.95,1.98c0.21,0.61,0.34,1.21,0.43,1.8c0.06,0.42,0.11,0.84,0.11,1.26
				c0,0.46-0.03,0.92-0.09,1.37c-0.15,1.24-0.5,2.46-1.06,3.65c-0.1,0.21-0.22,0.4-0.34,0.6c-0.86,1.56-2.05,2.81-3.64,3.72
				C226.23,66.31,225.48,66.62,224.7,66.86z M203.01,66.04c-0.67,0.36-1.39,0.65-2.15,0.92c-0.37,0.13-0.74,0.27-1.13,0.38
				c-0.82,0.24-1.78,0.38-2.8,0.46c-0.5,0.04-0.98,0.09-1.52,0.09c-0.76,0-1.29-0.02-1.59-0.05c-0.4-0.03-0.75-0.12-1.13-0.18
				c-1.16-0.18-2.25-0.45-3.22-0.89c-0.72-0.33-1.31-0.75-1.82-1.24c-0.39-0.39-0.73-0.82-0.99-1.31c-0.15-0.28-0.27-0.58-0.39-0.88
				c-0.54-1.33-0.85-2.9-0.9-4.73l-0.05-0.84L185.28,57c-0.02-0.13-0.03-0.33-0.04-0.61c-0.01-0.27-0.01-0.62-0.01-1.03
				c-0.17-2.71-0.25-5.31-0.25-7.8c0-1.52,0.05-3.05,0.15-4.57c0.1-1.65,0.39-3.27,0.87-4.84c0.48-1.57,1.22-2.96,2.21-4.15
				l1.09-0.6c1.32-0.64,2.72-1.05,4.19-1.3c0.89-0.15,1.81-0.24,2.76-0.24c0.46,0,0.9,0.06,1.34,0.09c1.09,0.09,2.15,0.24,3.15,0.53
				c0.11,0.03,0.21,0.09,0.32,0.12c1.09,0.35,2.06,0.83,2.93,1.42c0.14,0.1,0.31,0.17,0.45,0.27c0.21,0.19,0.4,0.39,0.58,0.58
				c0.34,0.35,0.64,0.7,0.89,1.04c0.36,0.51,0.64,1.01,0.82,1.51c0.09,0.24,0.15,0.48,0.23,0.72c-0.63,1.55-0.98,3.17-0.98,4.85
				c0,1.7,0.38,3.41,1.13,5.08c0.14,0.31,0.31,0.62,0.47,0.92c0,0.43-0.01,0.87-0.01,1.35c0,0.34,0,0.64-0.01,0.95
				c0,0.54-0.01,1.05-0.02,1.52c-0.01,0.41-0.02,0.79-0.03,1.15c-0.61,0.16-1.13,0.5-1.49,0.99c-0.29,0.39-0.46,0.85-0.51,1.36
				c-0.01,0.08-0.04,0.15-0.04,0.24v0.37c-0.1,1.76,0.23,3.39,0.89,4.9c-0.24,0.67-0.53,1.31-0.87,1.91
				c-0.09,0.15-0.16,0.32-0.25,0.47c-0.15,0.21-0.37,0.4-0.56,0.59c-0.3,0.3-0.66,0.58-1.07,0.85
				C203.41,65.78,203.24,65.92,203.01,66.04z M169.84,31.52c0.93,0.13,1.67,0.32,2.23,0.55c-0.07,2.38-0.1,4.29-0.1,5.71
				c0,1.99,0.03,4.97,0.1,8.94c0.03,1.99,0.05,4.92,0.05,8.79v0.74v1.35v1.14c1.09,0,2.43,0.05,4.02,0.15l1.07,0.04l1.35,0.05
				l0.21,0.01c0.39,0.03,0.77,0.04,1.15,0.06c0.3,0.02,0.62,0.04,0.91,0.05c0.46,0.02,0.9,0.02,1.35,0.03
				c0.17,0,0.35,0.01,0.52,0.01c0.01,0,0.02,0,0.02,0c0.13,2.46,0.64,4.59,1.57,6.33c0.16,0.31,0.36,0.59,0.56,0.87
				c-0.02,0.07-0.03,0.16-0.05,0.22c-0.07,0.17-0.17,0.29-0.29,0.38c-0.07,0.06-0.14,0.11-0.23,0.14c-0.23,0.07-0.63,0.1-1.19,0.1
				h-0.35l-0.74-0.05l-0.05,0l0,0l-1.29,0.05c-0.05,0-0.11,0-0.16,0c-0.13,0-0.29,0.01-0.43,0.01c-2.03,0.06-4.83,0.08-8.49,0.08
				c-1.14,0-2.19,0-3.18-0.01c-2.34-0.01-4.33-0.02-5.9-0.04v-1.14c0.23-5.46,0.35-10.96,0.35-16.49c0-1.62-0.03-4.42-0.1-8.39
				v-1.19v-1.84c-0.03-0.56-0.05-1.57-0.05-3.03l-0.05-3.23c0.42-0.15,1.02-0.28,1.75-0.39c0.07-0.01,0.12-0.02,0.19-0.03
				c0.83-0.12,1.66-0.17,2.48-0.17c0.22,0,0.44,0.04,0.67,0.05c0.49,0.02,0.97,0.05,1.46,0.1C169.4,31.5,169.62,31.49,169.84,31.52z
				 M230.47,47.19c-0.23-0.21-0.44-0.43-0.68-0.63c0.22-0.02,0.44-0.06,0.66-0.08C230.46,46.72,230.46,46.96,230.47,47.19z
				 M384.6,61.57c-0.86,1.86-2.19,3.29-3.97,4.32c-0.72,0.41-1.48,0.72-2.25,0.97c-1.05,0.33-2.15,0.52-3.3,0.55
				c-0.11,0-0.21,0.02-0.31,0.02c-1,0-1.99-0.1-2.97-0.28c-1.12-0.21-2.23-0.53-3.32-0.98c-2.04-0.84-3.68-2.06-4.94-3.65
				c-0.07-0.09-0.12-0.19-0.19-0.29c-0.69-0.95-1.13-1.99-1.35-3.11c-0.13-0.68-0.2-1.38-0.15-2.12v-0.45
				c0.05-0.01,0.11-0.01,0.15-0.02c0.38-0.06,0.78-0.11,1.19-0.15c0.05,0,0.1-0.01,0.16-0.02c0.53-0.04,1.09-0.06,1.68-0.06
				c0.66,0,1.23,0.01,1.75,0.02c0.27,0.01,0.54,0.01,0.78,0.03c0.38,0.02,0.97,0.03,1.71,0.04c0.41,0,0.87,0.01,1.39,0.01
				c0.1,0,0.18,0,0.28,0c0.03,0.99,0.34,1.77,0.92,2.34c0.58,0.56,1.25,0.84,2.01,0.84c0.66,0,1.22-0.21,1.66-0.65
				c0.45-0.43,0.67-1.04,0.67-1.84c0-0.3-0.02-0.53-0.05-0.7c-0.17-1.22-0.74-2.09-1.74-2.58c-0.99-0.5-2.34-0.91-4.02-1.24
				l-0.75-0.15c-1.42-0.26-2.67-0.84-3.73-1.74c-1.13-1.1-1.98-2.27-2.57-3.51c-0.03-0.07-0.08-0.14-0.11-0.22
				c-0.6-1.32-0.89-2.65-0.89-3.97c0-1.53,0.35-2.99,1-4.39c0.27-0.57,0.58-1.14,0.96-1.69c1.31-1.9,3.01-3.29,5.09-4.15
				c0.61-0.25,1.3-0.44,2.06-0.57c0.83-0.15,1.75-0.22,2.76-0.22c0.56,0,1.1,0.03,1.64,0.08c1.23,0.11,2.4,0.33,3.51,0.68
				c0.56,0.18,1.12,0.39,1.65,0.63c1.52,0.79,2.73,1.84,3.63,3.13c0.89,1.29,1.34,2.81,1.34,4.57c0,0.66-0.1,1.52-0.3,2.58h-0.6
				c-0.74,0.12-1.48,0.21-2.22,0.27c-0.47,0.04-0.93,0.05-1.39,0.06c-0.17,0-0.35,0.02-0.52,0.02c-0.93,0-1.78-0.08-2.58-0.2
				c-0.6-0.09-1.17-0.19-1.7-0.35c0.07-0.33,0.1-0.56,0.1-0.7c0-0.76-0.28-1.39-0.84-1.89c-0.56-0.5-1.19-0.74-1.89-0.74
				c-0.5,0-0.94,0.16-1.32,0.47c-0.38,0.32-0.6,0.79-0.67,1.42c-0.1,0.3-0.15,0.56-0.15,0.79l0.05,0.45v0.1
				c0.04,0.11,0.1,0.19,0.14,0.29c0.22,0.52,0.5,0.93,0.88,1.15c0.39,0.23,0.87,0.39,1.4,0.5c0.07,0.01,0.14,0.04,0.21,0.05
				c1.25,0.18,2.51,0.57,3.78,1.18c0.41,0.2,0.82,0.42,1.23,0.66c1.69,0.99,3.05,2.15,4.07,3.48c0.63,0.86,1.13,1.81,1.49,2.86
				c0.36,1.04,0.55,2.06,0.55,3.06C385.74,58.28,385.36,59.95,384.6,61.57z M360.66,67.09c-0.1,0-0.3,0.05-0.6,0.15
				c-0.13,0.05-0.34,0.09-0.55,0.12c-0.32,0.05-0.69,0.08-1.19,0.08c-0.03,0.01-0.09,0.01-0.18,0.01c-0.09,0-0.21,0-0.35-0.01
				c-0.31-0.01-0.76-0.04-1.33-0.09c-0.24-0.02-0.49-0.04-0.77-0.06c-0.29-0.02-0.65-0.05-1.05-0.07c-0.15-0.01-0.3-0.02-0.47-0.03
				c-0.31-0.02-0.55-0.03-0.73-0.03s-0.29,0.01-0.34,0.03l-1.99-4.42c-2.09-4.57-3.46-7.73-4.12-9.49v9.54
				c0,1.27,0.01,2.27,0.02,3.05c0.01,0.48,0.02,0.89,0.03,1.18c-0.28,0.08-0.59,0.13-0.89,0.19c-0.45,0.09-0.92,0.14-1.4,0.17
				c-0.19,0.01-0.38,0.04-0.58,0.04c-0.02,0-0.04,0-0.06,0c-0.29,0-0.73-0.03-1.27-0.08c-0.08-0.01-0.14-0.01-0.22-0.02
				c-0.73-0.07-1.26-0.1-1.59-0.1l-0.35-0.01l-2.08-0.09v-3.73c0-1.58-0.02-3.66-0.06-6.24c-0.01-0.88-0.03-1.81-0.04-2.8
				c-0.03-1.95-0.05-4.92-0.05-8.89c0-4.88,0.13-9.01,0.38-12.45c0.02-0.31,0.04-0.66,0.07-0.96c0.16-0.04,0.34-0.06,0.5-0.09
				c0.76-0.16,1.58-0.25,2.48-0.25c0.11,0,0.26,0.01,0.38,0.02c0.48,0.01,1.03,0.05,1.63,0.12c0.08,0.01,0.15,0.01,0.23,0.02
				c0.14,0.02,0.27,0.02,0.41,0.04c0.35,0.04,0.65,0.1,0.93,0.16c0.55,0.12,0.97,0.26,1.23,0.44c0.03,0.06,0.07,0.13,0.1,0.19
				c0.45,0.85,0.98,1.98,1.62,3.41c0.68,1.54,1.33,3.07,1.96,4.59l1.99,4.57c-0.07-2.32-0.1-5.05-0.1-8.2c0-2.55,0.02-4.3,0.05-5.27
				c0.44-0.09,0.9-0.14,1.36-0.19c0.89-0.11,1.8-0.19,2.76-0.19c0.07,0,0.13-0.01,0.2-0.01c0.38,0,0.77,0.04,1.15,0.07
				c0.78,0.05,1.58,0.15,2.39,0.3c0.16,0.03,0.31,0.04,0.48,0.08v1.23v1.74v3.26c-0.64,1.57-1,3.2-1,4.9c0,1.59,0.35,3.19,1,4.76
				v3.11v1.64v1.66c-0.38,0.19-0.7,0.46-0.95,0.79c-0.29,0.39-0.46,0.85-0.51,1.36c-0.01,0.08-0.04,0.15-0.04,0.24v0.37
				c-0.13,2.24,0.4,4.27,1.5,6.1v1.88v1.6V67.09z M328.84,67.49c-0.65,0.18-1.33,0.32-2.06,0.39h0.05c-0.37,0.04-0.68,0.05-1,0.06
				c-0.21,0.01-0.44,0.04-0.63,0.04c-1.02,0-2.01-0.09-2.98-0.25c-0.9-0.15-1.77-0.37-2.63-0.66c-1.79-0.61-3.27-1.55-4.45-2.81
				c-0.97-1.04-1.54-2.28-1.76-3.7c-0.05-0.3-0.1-0.6-0.11-0.92c0-2.42,0.03-6.04,0.1-10.88l0.05-3.23c0.07-3.48,0.1-6.07,0.1-7.76
				c0-0.01,0-0.03,0-0.04c0-2.19-0.02-3.79-0.05-4.82h0.39h0.85l2.97-0.1l0.01,0c0.49,0,0.94,0.05,1.39,0.08
				c0.1,0.01,0.2,0.01,0.3,0.02c0.46,0.04,0.89,0.11,1.31,0.18c0.43,0.08,0.88,0.15,1.27,0.26c-0.13,3.71-0.2,6.56-0.2,8.54
				c0,1.21,0.01,2.45,0.04,3.72c0.08,3.79,0.28,7.86,0.61,12.22V57.8c0.2,0.66,0.5,1.17,0.89,1.51c0.4,0.35,0.83,0.52,1.29,0.52
				c0.53,0,1.03-0.21,1.49-0.65c0.46-0.43,0.78-0.98,0.94-1.64v0.05c0.13-3.05,0.23-7.86,0.3-14.45l0.05-3.18
				c0-1.59,0.03-3.78,0.1-6.56l1.04-0.15c0.29,0,0.67-0.03,1.1-0.07c0.25-0.02,0.5-0.05,0.79-0.08c0.08-0.01,0.15-0.01,0.23-0.02
				c0.54-0.05,0.98-0.09,1.33-0.11c0.01,0,0.02,0,0.03,0c0.25-0.02,0.47-0.03,0.62-0.03c0.1,0,0.17,0,0.22,0.01
				c0.18,0,0.32,0.01,0.49,0.02c0.01,0,0.01,0,0.02,0c1.15,0.04,1.98,0.19,2.48,0.48h0.29c-0.23,3.37-0.35,7.38-0.35,12.02
				c0,4.06,0.02,6.99,0.05,8.94c0.02,0.94,0.03,1.82,0.04,2.65c-0.07,0.81-0.14,1.63-0.23,2.42c-0.25,2.15-1.1,3.96-2.51,5.46
				c-0.09,0.09-0.15,0.19-0.24,0.28c-0.34,0.34-0.72,0.63-1.1,0.9c-0.42,0.3-0.87,0.56-1.35,0.78
				C329.93,67.14,329.4,67.34,328.84,67.49z M307.38,65.71c-0.18,0.11-0.32,0.23-0.51,0.33c-0.67,0.36-1.39,0.65-2.15,0.92
				c-0.37,0.13-0.74,0.27-1.13,0.38c-0.82,0.24-1.78,0.38-2.8,0.46c-0.5,0.04-0.98,0.09-1.52,0.09c-0.76,0-1.29-0.02-1.59-0.05
				c-0.4-0.03-0.75-0.12-1.13-0.18c-1.16-0.18-2.25-0.45-3.22-0.89c-1.28-0.58-2.21-1.43-2.81-2.56c-0.45-0.84-0.77-1.81-0.98-2.89
				c-0.17-0.84-0.28-1.74-0.31-2.72l-0.1-1.59c-0.03-0.26-0.05-0.81-0.05-1.64c-0.17-2.71-0.25-5.31-0.25-7.8
				c0-1.52,0.05-3.05,0.15-4.57c0.07-1.21,0.28-2.38,0.56-3.55c0.1-0.43,0.18-0.87,0.31-1.29c0.48-1.57,1.22-2.96,2.21-4.15
				l1.09-0.6c1.32-0.64,2.72-1.05,4.19-1.3c0.89-0.15,1.81-0.24,2.76-0.24c0.46,0,0.9,0.06,1.34,0.09c1.09,0.09,2.15,0.24,3.15,0.53
				c0.11,0.03,0.21,0.09,0.32,0.12c0.13,0.04,0.25,0.1,0.38,0.15c0.46,0.16,0.92,0.32,1.34,0.53c0.49,0.24,0.93,0.53,1.36,0.83
				c0.1,0.07,0.21,0.11,0.3,0.18c1.16,1.06,1.92,2.1,2.28,3.13c0.09,0.25,0.16,0.49,0.24,0.74c0,1.67-0.04,4.1-0.1,7.31l-0.05,3.24
				c-0.07,4.76-0.1,8.43-0.1,10.92c0,0.03,0,0.06,0,0.1c0.01,0.23,0.06,0.44,0.08,0.66c-0.31,1.26-0.76,2.4-1.36,3.43
				c-0.07,0.12-0.13,0.26-0.2,0.38c-0.18,0.25-0.42,0.47-0.66,0.69C308.14,65.19,307.78,65.46,307.38,65.71z M284.34,67.44
				c-0.05,0-0.13,0-0.19-0.01c-0.05,0-0.09,0-0.15,0c-0.31-0.01-0.76-0.04-1.33-0.09c-0.24-0.02-0.49-0.04-0.77-0.06
				c-0.29-0.02-0.65-0.05-1.05-0.07c-0.15-0.01-0.3-0.02-0.47-0.03c-0.31-0.02-0.55-0.03-0.73-0.03c-0.18,0-0.29,0.01-0.34,0.03
				l-1.99-4.42c-2.09-4.57-3.46-7.73-4.12-9.49v9.54c0,1.27,0.01,2.27,0.02,3.05c0.01,0.48,0.02,0.89,0.03,1.18
				c-0.28,0.08-0.59,0.13-0.89,0.19c-0.45,0.09-0.92,0.14-1.4,0.17c-0.19,0.01-0.38,0.04-0.58,0.04c-0.02,0-0.04,0-0.06,0
				c-0.29,0-0.73-0.03-1.27-0.08c-0.08-0.01-0.14-0.01-0.22-0.02c-0.73-0.07-1.26-0.1-1.59-0.1l-0.35-0.01l-2.08-0.09v-3.73
				c0-2.12-0.03-5.13-0.1-9.04c-0.03-1.95-0.05-4.92-0.05-8.89c0-5.33,0.15-9.8,0.45-13.41c0.16-0.04,0.34-0.06,0.5-0.09
				c0.76-0.16,1.58-0.25,2.48-0.25c0.11,0,0.26,0.01,0.38,0.02c0.48,0.01,1.03,0.05,1.63,0.12c0.08,0.01,0.15,0.01,0.23,0.02
				c0.14,0.02,0.27,0.02,0.41,0.04c0.35,0.04,0.65,0.1,0.93,0.16c0.55,0.12,0.97,0.26,1.23,0.44c0.03,0.06,0.07,0.13,0.1,0.19
				c0.45,0.85,0.98,1.98,1.62,3.41c0.68,1.54,1.33,3.07,1.96,4.59l1.99,4.57c-0.07-2.32-0.1-5.05-0.1-8.2c0-2.55,0.02-4.3,0.05-5.27
				c0.44-0.09,0.9-0.14,1.36-0.19c0.89-0.11,1.8-0.19,2.76-0.19c0.07,0,0.13-0.01,0.2-0.01c0.38,0,0.77,0.04,1.15,0.07
				c0.44,0.03,0.89,0.07,1.34,0.13c0.5,0.07,1.01,0.14,1.53,0.25v0.45v1.53v5.3c-0.27,1.21-0.48,2.44-0.55,3.69
				c-0.1,1.55-0.15,3.15-0.15,4.73c0,2.51,0.08,5.16,0.25,7.88c0,1.05,0.03,1.52,0.06,1.79l0.09,1.48c0.03,0.99,0.15,1.91,0.31,2.79
				v4.7v0.88c-0.1,0-0.3,0.05-0.6,0.15c-0.05,0.02-0.15,0.03-0.21,0.05c-0.34,0.1-0.83,0.15-1.53,0.15
				C284.49,67.44,284.43,67.44,284.34,67.44z"/>
		</g>
	</g>
</g>
</svg>
